REM DIRINDEX 1\2\6,1\2\7,1\2\8,1\2\9,1\3\10,1\3\11,1\4\12,1\4\13,1\4\14,1\5\15,1\5\16,1\5\17
REM DIRNAME cjc020,folder01,folder02,folder03,folder04,folder05,folder06,folder07,folder08,folder09,folder10,folder11,folder12,folder13,folder14,folder15,folder16
TITLE ""
FILE "1900_3_072 sec12_1184_1200.mp3" MP3
  TRACK 01 AUDIO
    TITLE "0:"
    INDEX 01 00:00:00
  TRACK 02 AUDIO
    TITLE "17:cjc020_8346"
    INDEX 01 00:00:13
  TRACK 03 AUDIO
    TITLE "0:"
    INDEX 01 00:01:36
  TRACK 04 AUDIO
    TITLE "16:cjc020_8347"
    INDEX 01 00:01:40
  TRACK 05 AUDIO
    TITLE "0:"
    INDEX 01 00:02:63
  TRACK 06 AUDIO
    TITLE "17:cjc020_8348"
    INDEX 01 00:03:47
  TRACK 07 AUDIO
    TITLE "0:"
    INDEX 01 00:04:66
  TRACK 08 AUDIO
    TITLE "16:cjc020_8349"
    INDEX 01 00:04:72
  TRACK 09 AUDIO
    TITLE "0:"
    INDEX 01 00:06:02
  TRACK 10 AUDIO
    TITLE "17:cjc020_8350"
    INDEX 01 00:06:63
  TRACK 11 AUDIO
    TITLE "0:"
    INDEX 01 00:07:74
  TRACK 12 AUDIO
    TITLE "16:cjc020_8351"
    INDEX 01 00:08:05
  TRACK 13 AUDIO
    TITLE "0:"
    INDEX 01 00:09:26
  TRACK 14 AUDIO
    TITLE "17:cjc020_8352"
    INDEX 01 00:10:14
  TRACK 15 AUDIO
    TITLE "0:"
    INDEX 01 00:11:64
  TRACK 16 AUDIO
    TITLE "16:cjc020_8353"
    INDEX 01 00:11:66
  TRACK 17 AUDIO
    TITLE "0:"
    INDEX 01 00:12:52
  TRACK 18 AUDIO
    TITLE "17:cjc020_8354"
    INDEX 01 00:13:51
  TRACK 19 AUDIO
    TITLE "0:"
    INDEX 01 00:15:11
  TRACK 20 AUDIO
    TITLE "16:cjc020_8355"
    INDEX 01 00:15:17
  TRACK 21 AUDIO
    TITLE "0:"
    INDEX 01 00:16:28
  TRACK 22 AUDIO
    TITLE "17:cjc020_8356"
    INDEX 01 00:17:14
  TRACK 23 AUDIO
    TITLE "0:"
    INDEX 01 00:18:29
  TRACK 24 AUDIO
    TITLE "16:cjc020_8357"
    INDEX 01 00:18:39
  TRACK 25 AUDIO
    TITLE "0:"
    INDEX 01 00:19:54
  TRACK 26 AUDIO
    TITLE "17:cjc020_8358"
    INDEX 01 00:20:41
  TRACK 27 AUDIO
    TITLE "0:"
    INDEX 01 00:21:35
  TRACK 28 AUDIO
    TITLE "16:cjc020_8359"
    INDEX 01 00:21:39
  TRACK 29 AUDIO
    TITLE "0:"
    INDEX 01 00:22:21
  TRACK 30 AUDIO
    TITLE "17:cjc020_8360"
    INDEX 01 00:23:18
  TRACK 31 AUDIO
    TITLE "0:"
    INDEX 01 00:24:12
  TRACK 32 AUDIO
    TITLE "16:cjc020_8361"
    INDEX 01 00:24:20
  TRACK 33 AUDIO
    TITLE "0:"
    INDEX 01 00:25:25
  TRACK 34 AUDIO
    TITLE "17:cjc020_8362"
    INDEX 01 00:26:01
  TRACK 35 AUDIO
    TITLE "0:"
    INDEX 01 00:27:34
  TRACK 36 AUDIO
    TITLE "16:cjc020_8363"
    INDEX 01 00:27:45
  TRACK 37 AUDIO
    TITLE "0:"
    INDEX 01 00:28:64
  TRACK 38 AUDIO
    TITLE "17:cjc020_8364"
    INDEX 01 00:29:44
  TRACK 39 AUDIO
    TITLE "0:"
    INDEX 01 00:32:05
  TRACK 40 AUDIO
    TITLE "16:cjc020_8365"
    INDEX 01 00:32:09
  TRACK 41 AUDIO
    TITLE "0:"
    INDEX 01 00:33:34
  TRACK 42 AUDIO
    TITLE "17:cjc020_8366"
    INDEX 01 00:34:16
  TRACK 43 AUDIO
    TITLE "0:"
    INDEX 01 00:35:33
  TRACK 44 AUDIO
    TITLE "16:cjc020_8367"
    INDEX 01 00:35:39
  TRACK 45 AUDIO
    TITLE "0:"
    INDEX 01 00:36:52
  TRACK 46 AUDIO
    TITLE "17:cjc020_8368"
    INDEX 01 00:37:36
  TRACK 47 AUDIO
    TITLE "0:"
    INDEX 01 00:39:21
  TRACK 48 AUDIO
    TITLE "16:cjc020_8369"
    INDEX 01 00:39:27
  TRACK 49 AUDIO
    TITLE "0:"
    INDEX 01 00:40:30
  TRACK 50 AUDIO
    TITLE "17:cjc020_8370"
    INDEX 01 00:41:18
  TRACK 51 AUDIO
    TITLE "0:"
    INDEX 01 00:42:18
  TRACK 52 AUDIO
    TITLE "16:cjc020_8371"
    INDEX 01 00:42:25
  TRACK 53 AUDIO
    TITLE "0:"
    INDEX 01 00:43:33
  TRACK 54 AUDIO
    TITLE "17:cjc020_8372"
    INDEX 01 00:44:18
  TRACK 55 AUDIO
    TITLE "0:"
    INDEX 01 00:45:39
  TRACK 56 AUDIO
    TITLE "16:cjc020_8373"
    INDEX 01 00:45:47
  TRACK 57 AUDIO
    TITLE "0:"
    INDEX 01 00:46:58
  TRACK 58 AUDIO
    TITLE "17:cjc020_8374"
    INDEX 01 00:47:46
  TRACK 59 AUDIO
    TITLE "0:"
    INDEX 01 00:49:35
  TRACK 60 AUDIO
    TITLE "16:cjc020_8375"
    INDEX 01 00:49:39
  TRACK 61 AUDIO
    TITLE "0:"
    INDEX 01 00:50:50
  TRACK 62 AUDIO
    TITLE "17:cjc020_8376"
    INDEX 01 00:51:32
  TRACK 63 AUDIO
    TITLE "0:"
    INDEX 01 00:52:63
  TRACK 64 AUDIO
    TITLE "16:cjc020_8377"
    INDEX 01 00:52:69
  TRACK 65 AUDIO
    TITLE "0:"
    INDEX 01 00:54:15
  TRACK 66 AUDIO
    TITLE "17:cjc020_8378"
    INDEX 01 00:55:04
  TRACK 67 AUDIO
    TITLE "0:"
    INDEX 01 00:56:12
  TRACK 68 AUDIO
    TITLE "16:cjc020_8379"
    INDEX 01 00:56:16
  TRACK 69 AUDIO
    TITLE "0:"
    INDEX 01 00:57:29
